<svg width="215" height="229" viewBox="0 0 215 229" fill="none" xmlns="http://www.w3.org/2000/svg">
<rect x="0.5" y="0.5" width="214" height="228" fill="#D9D9D9"/>
<path d="M107.3 107.511C123.676 107.511 136.952 94.0768 136.952 77.5053C136.952 60.9338 123.676 47.5 107.3 47.5C90.9231 47.5 77.6475 60.9338 77.6475 77.5053C77.6475 94.0768 90.9231 107.511 107.3 107.511Z" stroke="black" stroke-width="12.0021"/>
<path d="M136.953 119.513H139.038C148.01 119.513 155.579 126.273 156.692 135.283L159.008 154.03C159.893 161.194 154.373 167.521 147.238 167.521H67.3625C60.2283 167.521 54.7085 161.194 55.5933 154.03L57.9092 135.283C59.0221 126.273 66.5905 119.513 75.563 119.513H77.6485" stroke="black" stroke-width="12.0021" stroke-linecap="round" stroke-linejoin="round"/>
</svg>
