<svg width="16" height="16" viewBox="0 0 16 16" fill="none" xmlns="http://www.w3.org/2000/svg">
<path d="M11.1726 3.25918L12.8992 4.98582M12.2827 1.73815L7.61209 6.40875C7.3711 6.64979 7.20678 6.95678 7.13991 7.29101L6.70801 9.45059L8.86758 9.01869C9.20178 8.95182 9.50882 8.78749 9.74981 8.5465L14.4204 3.8759C15.0108 3.28558 15.0108 2.32848 14.4204 1.73815C13.8301 1.14783 12.873 1.14783 12.2827 1.73815V1.73815Z" stroke="#F2F2F2" stroke-width="1.5" stroke-linecap="round" stroke-linejoin="round"/>
<path d="M13.2328 11.0816V13.5282C13.2328 14.429 12.5025 15.1592 11.6017 15.1592H2.63104C1.73024 15.1592 1 14.429 1 13.5282V4.55749C1 3.65669 1.73024 2.92645 2.63104 2.92645H5.07759" stroke="#F2F2F2" stroke-width="1.5" stroke-linecap="round" stroke-linejoin="round"/>
</svg>
